# xmcd
#
# Track frame offsets: 
#        150
#        17419
#        39680
#        61543
#        80410
#        98452
#        122048
#        144907
#        162210
#        182567
#        200043
#        222742
#        240360
#        257647
#        276661
#        293800
#        314895
#
# Disc length: 4472 seconds
#
# Revision: 4
# Processed by: cddbd v1.5.2PL0 Copyright (c) Steve Scherf et al.
# Submitted via: ExactAudioCopy v1.0b3
#
DISCID=f5117611
DTITLE=中川翔子 - しょこたん べすと――(°∀°)――!! Disc 2 SRCL-7979-81
DYEAR=2012
DGENRE=JPop
TTITLE0=はんぶん不思議
TTITLE1=1／2
TTITLE2=God knows... 
TTITLE3=恋心
TTITLE4=残酷な天使のテーゼ 
TTITLE5=魂のルフラン 
TTITLE6=ETERNAL WIND ~ほほえみは光る風の中~ 
TTITLE7=ゆずれない願い
TTITLE8=輪舞 -REVOLUTION
TTITLE9=星間飛行 
TTITLE10=DIAMONDS 
TTITLE11=蒼いフォトグラフ 
TTITLE12=ロマンティックあげるよ 
TTITLE13=空色デイズ -北京語ver.- 
TTITLE14=ホリゾント 
TTITLE15=apple universe
TTITLE16=souffle secret 
EXTD=YEAR: 2012
EXTT0=
EXTT1=
EXTT2=
EXTT3=
EXTT4=
EXTT5=
EXTT6=
EXTT7=
EXTT8=
EXTT9=
EXTT10=
EXTT11=
EXTT12=
EXTT13=
EXTT14=
EXTT15=
EXTT16=
PLAYORDER=
